<?xml version="1.0" encoding="UTF-8" standalone="no"?>
<!-- Created with Inkscape (http://www.inkscape.org/) -->

<svg
   xmlns:dc="http://purl.org/dc/elements/1.1/"
   xmlns:cc="http://creativecommons.org/ns#"
   xmlns:rdf="http://www.w3.org/1999/02/22-rdf-syntax-ns#"
   xmlns:svg="http://www.w3.org/2000/svg"
   xmlns="http://www.w3.org/2000/svg"
   xmlns:sodipodi="http://sodipodi.sourceforge.net/DTD/sodipodi-0.dtd"
   xmlns:inkscape="http://www.inkscape.org/namespaces/inkscape"
   width="142.84944mm"
   height="165.86143mm"
   viewBox="0 0 142.84944 165.86143"
   version="1.1"
   id="svg3830"
   inkscape:version="0.92.2 5c3e80d, 2017-08-06"
   sodipodi:docname="raincatcher-logo.svg">
  <defs
     id="defs3824" />
  <sodipodi:namedview
     id="base"
     pagecolor="#ffffff"
     bordercolor="#666666"
     borderopacity="1.0"
     inkscape:pageopacity="0.0"
     inkscape:pageshadow="2"
     inkscape:zoom="0.35"
     inkscape:cx="400"
     inkscape:cy="-265.05999"
     inkscape:document-units="mm"
     inkscape:current-layer="layer1"
     showgrid="false"
     fit-margin-top="0"
     fit-margin-left="0"
     fit-margin-right="0"
     fit-margin-bottom="0"
     inkscape:window-width="1916"
     inkscape:window-height="1041"
     inkscape:window-x="1366"
     inkscape:window-y="18"
     inkscape:window-maximized="0" />
  <metadata
     id="metadata3827">
    <rdf:RDF>
      <cc:Work
         rdf:about="">
        <dc:format>image/svg+xml</dc:format>
        <dc:type
           rdf:resource="http://purl.org/dc/dcmitype/StillImage" />
        <dc:title></dc:title>
      </cc:Work>
    </rdf:RDF>
  </metadata>
  <g
     inkscape:label="Layer 1"
     inkscape:groupmode="layer"
     id="layer1"
     transform="translate(0,-30.372873)">
    <g
       id="g7"
       transform="matrix(1.4587637,0,0,1.4587637,0.03646909,30.372873)">
      <path
         id="path9"
         d="m 0.1,0 c 2.7,0 24.5,0.1 33.1,0.1 18.3,0 33.1,14.6 33,32.9 0,9.1 -0.1,33 -0.1,33 L 28.4,65.9 C 12.3,63.6 0,49.9 0,33.1 0,25 -0.1,0 0.1,0 Z"
         class="st0"
         inkscape:connector-curvature="0"
         style="fill:#005f6b" />
      <path
         id="path11"
         d="m 67.1,71.4 c -1.8,0 -15.7,0 -21.2,0.1 -11.7,0 -21.2,9.4 -21.2,21.1 0,5.8 0.1,21.1 0.1,21.1 L 49,113.6 c 10.3,-1.4 18.2,-10.2 18.2,-21 0,-5.2 0.1,-21.2 -0.1,-21.2 z"
         class="st1"
         inkscape:connector-curvature="0"
         style="fill:#008c9e" />
      <path
         id="path13"
         d="M 97.7,40.8 H 84.6 c -7.3,0 -13.2,5.8 -13.1,13.1 0,3.6 0.1,13.1 0.1,13.1 l 15,-0.1 C 93,66 97.9,60.5 97.9,53.9 97.8,50.7 97.8,40.8 97.7,40.8 Z"
         class="st2"
         inkscape:connector-curvature="0"
         style="fill:#00dffc" />
      <path
         id="path15"
         d="m 71.4,71.4 v 7.9 c 0,4.4 3.5,7.9 7.9,7.9 h 7.9 v -9 c -0.5,-3.9 -3.8,-6.8 -7.8,-6.8 z"
         class="st3"
         inkscape:connector-curvature="0"
         style="fill:#00b4cc" />
    </g>
  </g>
</svg>
